<svg xmlns="http://www.w3.org/2000/svg" width="115" height="82" viewBox="0 0 115 82" fill="none"><path d="M22.1624 53.3521C19.6462 59.6807 15.6813 65.9333 10.3819 71.9571C8.70441 73.8634 8.47566 76.6083 9.84812 78.7433C10.9157 80.4208 12.6693 81.3357 14.5756 81.3357C15.1094 81.3357 15.6432 81.2978 16.177 81.107C27.3855 77.8283 53.5776 66.2002 54.302 28.9139C54.5687 14.5409 44.0464 2.18843 30.3594 0.777805C22.7725 0.0152674 15.2239 2.49324 9.61938 7.52578C4.01511 12.5965 0.8125 19.8403 0.8125 27.389C0.8125 39.9702 9.73386 50.9884 22.1624 53.3521Z" fill="#EF4B4F"></path><path d="M90.5939 0.778294C83.045 0.0157556 75.4963 2.49373 69.8921 7.52627C64.2876 12.597 61.085 19.8408 61.085 27.3895C61.085 39.9707 70.0063 50.9888 82.4351 53.3526C79.9187 59.6812 75.9538 65.9338 70.6544 71.9576C68.9769 73.8638 68.7481 76.6087 70.1208 78.7437C71.1882 80.4212 72.942 81.3362 74.8483 81.3362C75.3818 81.3362 75.9157 81.2983 76.4494 81.1074C87.6582 77.8287 113.85 66.2007 114.574 28.9143V28.3808C114.574 14.2363 104.166 2.18892 90.5939 0.778294Z" fill="#EF4B4F"></path></svg>